<?xml version="1.0" encoding="UTF-8"?>
<svg xmlns="http://www.w3.org/2000/svg" version="1.1" viewBox="0 0 140 14">
  <defs>
    <style>
      .cls-1 {
        fill: #fff;
      }
    </style>
  </defs>
  <!-- Generator: Adobe Illustrator 28.6.0, SVG Export Plug-In . SVG Version: 1.2.0 Build 709)  -->
  <g>
    <g id="_レイヤー_1" data-name="レイヤー_1">
      <g>
        <path class="cls-1" d="M11.1,13c-1.4,0-2.5-.5-3.3-1.4-.8-.9-1.2-2-1.2-3.4s.4-2.6,1.2-3.4c.8-.9,1.8-1.3,3.3-1.3,1.4,0,2.5.5,3.3,1.3.8.9,1.1,2,1.1,3.4s-.4,2.5-1.1,3.4c-.8.9-1.9,1.4-3.3,1.4ZM11.1,11.4c.9,0,1.5-.4,1.9-1,.4-.6.6-1.4.6-2.2s-.2-1.6-.6-2.2c-.4-.6-1-1-1.9-1-.9,0-1.5.4-1.9,1-.4.6-.6,1.4-.6,2.2s.2,1.5.6,2.2c.4.7,1,1,1.9,1Z"/>
        <path class="cls-1" d="M16.6,3.7h1.5V.9h1.9v2.7h1.8v1.5h-1.8v4.9c0,.4,0,.7.1.9.1.2.4.3.8.3.3,0,.5,0,.8,0v1.5c-.4,0-.8,0-1.3.1-1,0-1.6-.2-1.9-.6-.3-.4-.5-1-.5-1.7v-5.4h-1.5v-1.5Z"/>
        <path class="cls-1" d="M27.3,13c-1.4,0-2.5-.5-3.3-1.4-.8-.9-1.2-2-1.2-3.4s.4-2.6,1.2-3.4c.8-.9,1.8-1.3,3.3-1.3,1.4,0,2.5.5,3.3,1.3.8.9,1.1,2,1.1,3.4s-.4,2.5-1.1,3.4c-.8.9-1.9,1.4-3.3,1.4ZM27.3,11.4c.9,0,1.5-.4,1.9-1,.4-.6.6-1.4.6-2.2s-.2-1.6-.6-2.2c-.4-.6-1-1-1.9-1-.9,0-1.5.4-1.9,1-.4.6-.6,1.4-.6,2.2s.2,1.5.6,2.2c.4.7,1,1,1.9,1Z"/>
        <path class="cls-1" d="M40,9.8c0,.6.3,1,.6,1.2.4.3.8.4,1.4.4.4,0,.8,0,1.3-.2.4-.2.7-.5.7-1,0-.3,0-.5-.2-.7-.2-.1-.4-.3-.7-.4-.6-.2-1.2-.3-2-.5-.3,0-.7-.2-1-.3-.3-.1-.6-.3-.9-.5-.3-.2-.5-.5-.6-.8-.2-.3-.3-.7-.3-1.1s.1-.9.4-1.3c.2-.3.5-.6.9-.8.4-.2.8-.4,1.2-.4.4,0,.8-.1,1.2-.1.9,0,1.7.2,2.4.6.7.4,1.1,1.2,1.2,2.2h-2c0-.5-.3-.8-.6-1-.3-.2-.7-.2-1.2-.2s-.6,0-1,.2c-.4.1-.6.4-.6.8,0,.2,0,.4.2.6.2.2.4.3.6.4.6.2,1.2.3,2,.5.4,0,.7.2,1.1.3.3.1.6.3.9.5.3.2.5.4.6.7.2.3.2.7.2,1.1,0,1.1-.5,1.8-1.3,2.3-.8.5-1.7.7-2.7.7s-2-.3-2.8-.8c-.7-.5-1.1-1.3-1.1-2.4h1.9Z"/>
        <path class="cls-1" d="M47.7.2h1.9v4.7h0c.2-.4.6-.8,1.1-1.1.5-.3,1-.4,1.6-.4,2,0,3.1,1,3.1,3.1v6.2h-1.9v-5.7c0-1.4-.6-2-1.7-2-.7,0-1.2.2-1.5.7-.4.5-.6,1-.6,1.7v5.3h-1.9V.2Z"/>
        <path class="cls-1" d="M57.8.2h1.9v1.9h-1.9V.2ZM57.8,3.7h1.9v9.1h-1.9V3.7Z"/>
        <path class="cls-1" d="M62,3.7h1.8v1.7h0c.1-.5.5-1,.9-1.4.5-.4,1-.6,1.6-.6.4,0,.6,0,.7,0v1.9c-.1,0-.3,0-.4,0-.1,0-.3,0-.4,0-.7,0-1.2.3-1.7.8-.5.5-.7,1.3-.7,2.3v4.3h-1.9V3.7Z"/>
        <path class="cls-1" d="M71.9,13c-1.4,0-2.5-.5-3.3-1.4-.8-.9-1.2-2-1.2-3.4s.4-2.6,1.2-3.4c.8-.9,1.8-1.3,3.3-1.3,1.4,0,2.5.5,3.3,1.3.8.9,1.1,2,1.1,3.4s-.4,2.5-1.1,3.4c-.8.9-1.9,1.4-3.3,1.4ZM71.9,11.4c.9,0,1.5-.4,1.9-1,.4-.6.6-1.4.6-2.2s-.2-1.6-.6-2.2c-.4-.6-1-1-1.9-1-.9,0-1.5.4-1.9,1-.4.6-.6,1.4-.6,2.2s.2,1.5.6,2.2c.4.7,1,1,1.9,1Z"/>
        <path class="cls-1" d="M89,6.7c-.2-1.1-.9-1.7-2-1.7-.2,0-.5,0-.8.1-.3,0-.5.2-.8.5-.2.2-.4.6-.6,1-.2.4-.3,1-.3,1.7s.2,1.5.5,2.1c.4.6,1,1,1.8,1,1.2,0,1.9-.7,2.1-2.1h1.9c-.4,2.4-1.7,3.6-4,3.6-1.4,0-2.4-.5-3.1-1.3-.7-.9-1.1-2-1.1-3.3s.4-2.6,1.1-3.5c.7-.9,1.8-1.4,3.2-1.4,1.1,0,1.9.3,2.7.8.7.5,1.2,1.4,1.3,2.5h-1.9Z"/>
        <path class="cls-1" d="M92.9.2h1.9v12.5h-1.9V.2Z"/>
        <path class="cls-1" d="M101.1,13c-1.4,0-2.5-.5-3.3-1.4-.8-.9-1.2-2-1.2-3.4s.4-2.6,1.2-3.4c.8-.9,1.8-1.3,3.3-1.3,1.4,0,2.5.5,3.3,1.3.8.9,1.1,2,1.1,3.4s-.4,2.5-1.1,3.4c-.8.9-1.9,1.4-3.3,1.4ZM101.1,11.4c.9,0,1.5-.4,1.9-1,.4-.6.6-1.4.6-2.2s-.2-1.6-.6-2.2c-.4-.6-1-1-1.9-1-.9,0-1.5.4-1.9,1-.4.6-.6,1.4-.6,2.2s.2,1.5.6,2.2c.4.7,1,1,1.9,1Z"/>
        <path class="cls-1" d="M109,9.8c0,.6.3,1,.7,1.2.4.3.8.4,1.4.4.4,0,.8,0,1.3-.2.4-.2.7-.5.7-1,0-.3,0-.5-.2-.7-.2-.1-.4-.3-.7-.4-.6-.2-1.2-.3-2-.5-.3,0-.7-.2-1-.3-.3-.1-.6-.3-.9-.5-.3-.2-.5-.5-.6-.8-.2-.3-.3-.7-.3-1.1s.1-.9.4-1.3c.2-.3.5-.6.9-.8.4-.2.8-.4,1.2-.4.4,0,.8-.1,1.2-.1.9,0,1.7.2,2.4.6.7.4,1.1,1.2,1.2,2.2h-2c0-.5-.3-.8-.6-1-.3-.2-.7-.2-1.2-.2s-.6,0-1,.2c-.4.1-.6.4-.6.8,0,.2,0,.4.2.6.2.2.4.3.6.4.6.2,1.2.3,2,.5.4,0,.7.2,1.1.3.3.1.6.3.9.5.3.2.5.4.6.7.2.3.2.7.2,1.1,0,1.1-.5,1.8-1.3,2.3-.8.5-1.7.7-2.7.7s-2-.3-2.8-.8c-.7-.5-1.1-1.3-1.1-2.4h1.9Z"/>
        <path class="cls-1" d="M118.1,8.7c0,.7.2,1.3.6,1.9.4.5,1,.8,1.8.8,1.1,0,1.8-.5,2.1-1.5h1.8c-.2,1-.7,1.7-1.4,2.3-.7.5-1.6.8-2.6.8-1.4,0-2.4-.5-3.2-1.3-.7-.9-1.1-2-1.1-3.4s.4-2.5,1.2-3.4c.7-.9,1.8-1.4,3.1-1.4,1.4,0,2.5.6,3.2,1.6.8,1,1.1,2.2.9,3.7h-6.5ZM122.6,7.4c0-.6-.2-1.2-.6-1.7-.4-.5-.9-.7-1.6-.7-.7,0-1.2.2-1.6.7-.4.4-.6,1-.7,1.7h4.5Z"/>
        <path class="cls-1" d="M125.5,3.7h1.5V.9h1.9v2.7h1.7v1.5h-1.7v4.9c0,.4,0,.7.1.9.1.2.4.3.8.3.3,0,.5,0,.8,0v1.5c-.4,0-.8,0-1.3.1-1,0-1.6-.2-1.9-.6-.3-.4-.5-1-.5-1.7v-5.4h-1.5v-1.5Z"/>
      </g>
    </g>
  </g>
</svg>